<svg xmlns="http://www.w3.org/2000/svg" viewBox="0 0 472.74 528.4"><defs><style>.cls-1{fill:#c59d5f;}.cls-2{fill:#fff;}</style></defs><title>Asset 3</title><g id="Layer_2" data-name="Layer 2"><g id="Layer_1-2" data-name="Layer 1"><path class="cls-1" d="M472.06,118.7C424.85,138.16,301.52,199,248.61,224.13,273.71,171.22,334.58,47.89,354,.68c0,0-7.72-4.18-18.5,8.2-8.07,9.27-69.83,112-100.72,176.66l-32.7,58.19c-47.36,17.27-120,39.56-125.93,41.36a39.6,39.6,0,1,0,3,15.09c8.67-2.89,54.6-18.17,90.73-29.93,16.72-5.43,28.34-5.47,36.26-3.69,1.78,7.93,1.75,19.55-3.69,36.27-11.75,36.13-27,82.07-29.92,90.73a39.59,39.59,0,0,0-15.11,76.18c3.08,4.11,0,9.95-2,13.85-10.5,19.92-4.53,32.73,7.56,44.81l6.56-7.38s-28.7-16.54,9.07-48.79a39.57,39.57,0,0,0,9-75.69c1.8-5.88,24.1-78.57,41.37-125.92l58.19-32.7C351.87,207,454.58,145.27,463.85,137.2,476.24,126.42,472.06,118.7,472.06,118.7ZM60.34,320.93a29.34,29.34,0,1,1,0-41.5A29.34,29.34,0,0,1,60.34,320.93Zm133,91.46a29.35,29.35,0,1,1-41.51,0A29.34,29.34,0,0,1,193.31,412.39Z"/><path class="cls-1" d="M223.72,251.67a5.46,5.46,0,1,1,0-7.73A5.45,5.45,0,0,1,223.72,251.67Z"/><path class="cls-2" d="M216,243.94a5.46,5.46,0,1,0,7.72,0A5.46,5.46,0,0,0,216,243.94Z"/></g></g></svg>